<svg xmlns="http://www.w3.org/2000/svg" xmlns:xlink="http://www.w3.org/1999/xlink" width="175" zoomAndPan="magnify" viewBox="0 0 750 225" height="45" preserveAspectRatio="xMidYMid meet" version="1.2"><defs/><g id="2bb488a66a"><g style="fill:#002417;fill-opacity:1;"><g transform="translate(41.602891, 169.280003)"><path style="stroke:none" d="M 49.4375 1.375 C 41.113281 1.375 33.703125 -0.0507812 27.203125 -2.90625 C 20.703125 -5.757812 15.566406 -9.664062 11.796875 -14.625 C 8.035156 -19.582031 5.925781 -25.140625 5.46875 -31.296875 L 34.375 -31.296875 C 34.71875 -27.992188 36.257812 -25.316406 39 -23.265625 C 41.738281 -21.210938 45.101562 -20.1875 49.09375 -20.1875 C 52.738281 -20.1875 55.554688 -20.894531 57.546875 -22.3125 C 59.546875 -23.738281 60.546875 -25.59375 60.546875 -27.875 C 60.546875 -30.613281 59.117188 -32.640625 56.265625 -33.953125 C 53.421875 -35.265625 48.804688 -36.71875 42.421875 -38.3125 C 35.578125 -39.90625 29.875 -41.585938 25.3125 -43.359375 C 20.75 -45.128906 16.8125 -47.921875 13.5 -51.734375 C 10.195312 -55.554688 8.546875 -60.71875 8.546875 -67.21875 C 8.546875 -72.695312 10.054688 -77.6875 13.078125 -82.1875 C 16.109375 -86.6875 20.554688 -90.25 26.421875 -92.875 C 32.296875 -95.5 39.28125 -96.8125 47.375 -96.8125 C 59.351562 -96.8125 68.789062 -93.847656 75.6875 -87.921875 C 82.582031 -81.992188 86.546875 -74.125 87.578125 -64.3125 L 60.546875 -64.3125 C 60.085938 -67.625 58.632812 -70.25 56.1875 -72.1875 C 53.738281 -74.125 50.519531 -75.09375 46.53125 -75.09375 C 43.101562 -75.09375 40.476562 -74.4375 38.65625 -73.125 C 36.832031 -71.8125 35.921875 -70.015625 35.921875 -67.734375 C 35.921875 -64.992188 37.375 -62.941406 40.28125 -61.578125 C 43.1875 -60.210938 47.71875 -58.84375 53.875 -57.46875 C 60.945312 -55.644531 66.707031 -53.847656 71.15625 -52.078125 C 75.601562 -50.316406 79.507812 -47.46875 82.875 -43.53125 C 86.238281 -39.59375 87.976562 -34.316406 88.09375 -27.703125 C 88.09375 -22.117188 86.523438 -17.128906 83.390625 -12.734375 C 80.253906 -8.347656 75.75 -4.898438 69.875 -2.390625 C 64 0.117188 57.1875 1.375 49.4375 1.375 Z M 49.4375 1.375 "/></g></g><g style="fill:#002417;fill-opacity:1;"><g transform="translate(128.491294, 169.280003)"><path style="stroke:none" d="M 132.390625 -96.46875 C 144.242188 -96.46875 153.675781 -92.875 160.6875 -85.6875 C 167.707031 -78.507812 171.21875 -68.535156 171.21875 -55.765625 L 171.21875 0 L 142.140625 0 L 142.140625 -51.828125 C 142.140625 -57.984375 140.515625 -62.742188 137.265625 -66.109375 C 134.015625 -69.472656 129.539062 -71.15625 123.84375 -71.15625 C 118.132812 -71.15625 113.65625 -69.472656 110.40625 -66.109375 C 107.15625 -62.742188 105.53125 -57.984375 105.53125 -51.828125 L 105.53125 0 L 76.453125 0 L 76.453125 -51.828125 C 76.453125 -57.984375 74.828125 -62.742188 71.578125 -66.109375 C 68.328125 -69.472656 63.851562 -71.15625 58.15625 -71.15625 C 52.457031 -71.15625 47.984375 -69.472656 44.734375 -66.109375 C 41.484375 -62.742188 39.859375 -57.984375 39.859375 -51.828125 L 39.859375 0 L 10.609375 0 L 10.609375 -95.4375 L 39.859375 -95.4375 L 39.859375 -83.46875 C 42.816406 -87.457031 46.691406 -90.617188 51.484375 -92.953125 C 56.273438 -95.296875 61.691406 -96.46875 67.734375 -96.46875 C 74.921875 -96.46875 81.332031 -94.925781 86.96875 -91.84375 C 92.613281 -88.769531 97.035156 -84.382812 100.234375 -78.6875 C 103.535156 -83.925781 108.035156 -88.195312 113.734375 -91.5 C 119.441406 -94.8125 125.660156 -96.46875 132.390625 -96.46875 Z M 132.390625 -96.46875 "/></g></g><g style="fill:#002417;fill-opacity:1;"><g transform="translate(301.071355, 169.280003)"><path style="stroke:none" d="M 100.578125 -49.265625 C 100.578125 -46.523438 100.40625 -43.671875 100.0625 -40.703125 L 33.875 -40.703125 C 34.320312 -34.773438 36.226562 -30.242188 39.59375 -27.109375 C 42.957031 -23.972656 47.09375 -22.40625 52 -22.40625 C 59.289062 -22.40625 64.363281 -25.484375 67.21875 -31.640625 L 98.359375 -31.640625 C 96.753906 -25.367188 93.867188 -19.722656 89.703125 -14.703125 C 85.546875 -9.691406 80.332031 -5.757812 74.0625 -2.90625 C 67.789062 -0.0507812 60.78125 1.375 53.03125 1.375 C 43.675781 1.375 35.347656 -0.617188 28.046875 -4.609375 C 20.753906 -8.609375 15.054688 -14.3125 10.953125 -21.71875 C 6.847656 -29.132812 4.796875 -37.800781 4.796875 -47.71875 C 4.796875 -57.644531 6.816406 -66.3125 10.859375 -73.71875 C 14.910156 -81.132812 20.582031 -86.835938 27.875 -90.828125 C 35.175781 -94.816406 43.5625 -96.8125 53.03125 -96.8125 C 62.257812 -96.8125 70.46875 -94.875 77.65625 -91 C 84.84375 -87.125 90.457031 -81.59375 94.5 -74.40625 C 98.550781 -67.21875 100.578125 -58.835938 100.578125 -49.265625 Z M 70.640625 -56.953125 C 70.640625 -61.972656 68.925781 -65.960938 65.5 -68.921875 C 62.082031 -71.890625 57.8125 -73.375 52.6875 -73.375 C 47.78125 -73.375 43.644531 -71.945312 40.28125 -69.09375 C 36.914062 -66.25 34.832031 -62.203125 34.03125 -56.953125 Z M 70.640625 -56.953125 "/></g></g><g style="fill:#002417;fill-opacity:1;"><g transform="translate(397.903534, 169.280003)"><path style="stroke:none" d="M 28.734375 -76.453125 C 31.816406 -81.816406 36.40625 -86.289062 42.5 -89.875 C 48.601562 -93.46875 55.703125 -95.265625 63.796875 -95.265625 C 72.117188 -95.265625 79.671875 -93.269531 86.453125 -89.28125 C 93.242188 -85.289062 98.578125 -79.675781 102.453125 -72.4375 C 106.328125 -65.195312 108.265625 -56.785156 108.265625 -47.203125 C 108.265625 -37.742188 106.328125 -29.304688 102.453125 -21.890625 C 98.578125 -14.484375 93.242188 -8.722656 86.453125 -4.609375 C 79.671875 -0.503906 72.117188 1.546875 63.796875 1.546875 C 55.816406 1.546875 48.773438 -0.25 42.671875 -3.84375 C 36.578125 -7.4375 31.929688 -11.914062 28.734375 -17.28125 L 28.734375 44.46875 L 13.171875 44.46875 L 13.171875 -93.734375 L 28.734375 -93.734375 Z M 92.359375 -47.203125 C 92.359375 -54.273438 90.929688 -60.429688 88.078125 -65.671875 C 85.234375 -70.921875 81.390625 -74.914062 76.546875 -77.65625 C 71.703125 -80.394531 66.367188 -81.765625 60.546875 -81.765625 C 54.847656 -81.765625 49.570312 -80.363281 44.71875 -77.5625 C 39.875 -74.769531 36 -70.722656 33.09375 -65.421875 C 30.1875 -60.117188 28.734375 -53.988281 28.734375 -47.03125 C 28.734375 -39.96875 30.1875 -33.785156 33.09375 -28.484375 C 36 -23.179688 39.875 -19.128906 44.71875 -16.328125 C 49.570312 -13.535156 54.847656 -12.140625 60.546875 -12.140625 C 66.367188 -12.140625 71.703125 -13.535156 76.546875 -16.328125 C 81.390625 -19.128906 85.234375 -23.179688 88.078125 -28.484375 C 90.929688 -33.785156 92.359375 -40.023438 92.359375 -47.203125 Z M 92.359375 -47.203125 "/></g></g><g style="fill:#002417;fill-opacity:1;"><g transform="translate(504.974802, 169.280003)"><path style="stroke:none" d="M 7.359375 -47.203125 C 7.359375 -56.785156 9.296875 -65.195312 13.171875 -72.4375 C 17.046875 -79.675781 22.375 -85.289062 29.15625 -89.28125 C 35.945312 -93.269531 43.503906 -95.265625 51.828125 -95.265625 C 60.035156 -95.265625 67.160156 -93.5 73.203125 -89.96875 C 79.253906 -86.4375 83.757812 -81.988281 86.71875 -76.625 L 86.71875 -93.734375 L 102.453125 -93.734375 L 102.453125 0 L 86.71875 0 L 86.71875 -17.453125 C 83.644531 -11.972656 79.054688 -7.4375 72.953125 -3.84375 C 66.847656 -0.25 59.75 1.546875 51.65625 1.546875 C 43.332031 1.546875 35.804688 -0.503906 29.078125 -4.609375 C 22.347656 -8.722656 17.046875 -14.484375 13.171875 -21.890625 C 9.296875 -29.304688 7.359375 -37.742188 7.359375 -47.203125 Z M 86.71875 -47.03125 C 86.71875 -54.101562 85.289062 -60.257812 82.4375 -65.5 C 79.59375 -70.75 75.742188 -74.769531 70.890625 -77.5625 C 66.046875 -80.363281 60.71875 -81.765625 54.90625 -81.765625 C 49.09375 -81.765625 43.789062 -80.394531 39 -77.65625 C 34.207031 -74.914062 30.382812 -70.921875 27.53125 -65.671875 C 24.6875 -60.429688 23.265625 -54.273438 23.265625 -47.203125 C 23.265625 -40.023438 24.6875 -33.785156 27.53125 -28.484375 C 30.382812 -23.179688 34.207031 -19.128906 39 -16.328125 C 43.789062 -13.535156 49.09375 -12.140625 54.90625 -12.140625 C 60.71875 -12.140625 66.046875 -13.535156 70.890625 -16.328125 C 75.742188 -19.128906 79.59375 -23.179688 82.4375 -28.484375 C 85.289062 -33.785156 86.71875 -39.96875 86.71875 -47.03125 Z M 86.71875 -47.03125 "/></g></g><g style="fill:#002417;fill-opacity:1;"><g transform="translate(612.046069, 169.280003)"><path style="stroke:none" d="M 93.90625 -93.734375 L 37.453125 44.125 L 21.375 44.125 L 39.859375 -1.03125 L 2.046875 -93.734375 L 19.328125 -93.734375 L 48.75 -17.78125 L 77.828125 -93.734375 Z M 93.90625 -93.734375 "/></g></g></g></svg>